<svg xmlns="http://www.w3.org/2000/svg" width="989.65056" height="1000" viewBox="0 0 989.65056 1000"><defs><style>.a{fill:#f8971d;}</style></defs><title>Artboard 1</title><path class="a" d="M775.35482,500.11214c0-145.06253-113.15824-268.71872-257.4875-281.39029-1.49769-.147-2.99538-.19088-4.49285-.19088h-6.48969v102.9838h2.99515c91.26664,8.57436,162.50633,86.80291,162.50633,178.59737,0,98.98966-80.5191,179.55267-179.37658,179.55267H438.22914V261.03717a51.48429,51.48429,0,1,0-102.96857,0v178.4513h-232.292V261.712A51.48429,51.48429,0,1,0,0,261.712V734.813a51.48428,51.48428,0,0,0,102.96856,0V542.501h232.292V731.90589A51.4581,51.4581,0,0,0,386.679,783.41213a49.25479,49.25479,0,0,0,8.72133-.82267h97.60936c155.64943,0,282.34514-126.695,282.34514-282.47732"/><path class="a" d="M516.37411.07552a51.4754,51.4754,0,1,0-5.43269,102.80726c210.81174,11.18843,375.94625,185.47,375.94625,396.75171,0,219.07738-178.31934,397.30912-397.412,397.30912H477.56812V1000h11.90759c275.88457,0,500.17485-224.51074,500.17485-500.36551,0-266.06253-207.787-485.53691-473.27645-499.559"/></svg>